<svg xmlns="http://www.w3.org/2000/svg" xmlns:xlink="http://www.w3.org/1999/xlink" width="500" zoomAndPan="magnify" viewBox="0 0 375 374.999991" height="500" preserveAspectRatio="xMidYMid meet" version="1.0"><rect x="-37.5" width="450" fill="#ffffff" y="-37.499999" height="449.999989" fill-opacity="1"/><rect x="-37.5" width="450" fill="#004aad" y="-37.499999" height="449.999989" fill-opacity="1"/><path fill="#fff200" d="M 125.929688 159.054688 L 116.457031 139.84375 L 114.78125 159.054688 L 104.402344 159.054688 L 107.417969 124.410156 L 119.460938 124.410156 L 128.121094 142.6875 L 129.710938 124.410156 L 140.148438 124.410156 L 137.125 159.054688 Z M 125.929688 159.054688 " fill-opacity="1" fill-rule="nonzero"/><path fill="#fff200" d="M 156.863281 159.054688 C 156.863281 159.054688 157.226562 154.359375 157.238281 154.230469 C 155.9375 157.253906 152.820312 159.554688 148.363281 159.554688 C 143.421875 159.554688 140.605469 157.347656 141.054688 152.199219 L 142.683594 133.417969 L 153.652344 133.417969 L 152.257812 149.476562 C 152.089844 151.355469 152.996094 152.292969 154.523438 152.292969 C 156.046875 152.292969 157.394531 151.308594 157.582031 149.1875 L 158.957031 133.398438 L 170.011719 133.398438 L 167.785156 159.019531 Z M 156.863281 159.054688 " fill-opacity="1" fill-rule="nonzero"/><path fill="#fff200" d="M 196.722656 147.824219 L 182.019531 147.824219 C 181.710938 151.882812 182.074219 153.871094 185.003906 153.871094 C 187.066406 153.871094 188 152.933594 188.347656 151.121094 C 188.429688 150.609375 188.472656 150.097656 188.476562 149.582031 L 196.902344 149.945312 C 196.976562 150.699219 196.976562 151.449219 196.902344 152.199219 C 196.554688 156.171875 193.242188 159.714844 184.117188 159.714844 C 174.496094 159.714844 170.03125 155.300781 170.734375 147.222656 C 171.667969 136.667969 178.417969 132.742188 186.597656 132.742188 C 194.5625 132.742188 198.257812 136.667969 197.679688 143.390625 C 197.527344 144.90625 197.207031 146.382812 196.722656 147.824219 Z M 185.71875 138.488281 C 183.78125 138.488281 182.796875 139.9375 182.28125 143.8125 L 187.449219 143.8125 C 187.605469 143.296875 187.710938 142.773438 187.765625 142.238281 C 187.992188 139.671875 187.335938 138.488281 185.71875 138.488281 Z M 185.71875 138.488281 " fill-opacity="1" fill-rule="nonzero"/><path fill="#fff200" d="M 210.546875 159.601562 C 202.546875 159.601562 198.128906 157.160156 198.378906 152.78125 C 198.421875 152.230469 198.527344 151.695312 198.699219 151.167969 L 206.542969 150.445312 C 206.542969 150.625 206.542969 150.753906 206.496094 150.941406 C 206.308594 153.054688 207.824219 154.230469 210.753906 154.230469 C 213.128906 154.230469 214.011719 153.421875 214.09375 152.425781 C 214.226562 150.941406 213.027344 150.21875 210.21875 149.449219 C 209.519531 149.269531 208.683594 149.046875 207.757812 148.867188 C 201.570312 147.597656 199.214844 145.296875 199.71875 140.519531 C 200.175781 136.28125 204.304688 132.761719 213.207031 132.761719 C 220.488281 132.761719 224.082031 135.382812 224.050781 139.335938 C 224.054688 139.714844 224.007812 140.09375 223.914062 140.460938 L 216.285156 141.277344 C 216.285156 141.140625 216.265625 141.007812 216.226562 140.875 C 216.042969 139.429688 215.132812 138.058594 212.570312 138.058594 C 210.324219 138.058594 209.675781 138.78125 209.59375 139.683594 C 209.507812 140.582031 210.574219 141.355469 213.65625 142.078125 C 214.273438 142.207031 215.152344 142.433594 216.078125 142.613281 C 222.929688 143.964844 224.699219 146.941406 224.304688 151.457031 C 223.820312 156.21875 220.007812 159.601562 210.546875 159.601562 Z M 210.546875 159.601562 " fill-opacity="1" fill-rule="nonzero"/><path fill="#fff200" d="M 235.65625 159.554688 C 230.089844 159.554688 226.992188 157.480469 227.460938 152.042969 L 228.601562 138.960938 L 225.007812 138.960938 L 225.484375 133.410156 L 229.171875 133.410156 L 229.828125 125.894531 L 240.796875 125.894531 L 240.140625 133.410156 L 245.851562 133.410156 L 245.363281 138.960938 L 239.65625 138.960938 L 238.625 150.941406 C 238.4375 153.148438 239.066406 154.144531 241.003906 154.144531 C 241.984375 154.085938 242.921875 153.84375 243.808594 153.421875 L 244.632812 156.894531 C 243.320312 157.8125 241.894531 158.5 240.359375 158.957031 C 238.824219 159.410156 237.257812 159.609375 235.65625 159.554688 Z M 235.65625 159.554688 " fill-opacity="1" fill-rule="nonzero"/><path fill="#fff200" d="M 270.832031 145.4375 L 261.789062 146.066406 C 262.210938 144.84375 262.523438 143.589844 262.726562 142.3125 C 262.867188 140.734375 262.726562 139.558594 261.171875 139.558594 C 258.785156 139.558594 258.140625 141.859375 257.832031 145.382812 L 256.632812 159.09375 L 245.597656 159.09375 L 247.824219 133.472656 L 258.792969 133.472656 C 258.792969 133.472656 258.449219 137.492188 258.390625 138.078125 C 258.671875 137.308594 259.0625 136.597656 259.558594 135.949219 C 260.058594 135.300781 260.640625 134.742188 261.3125 134.273438 C 261.980469 133.804688 262.707031 133.449219 263.484375 133.207031 C 264.265625 132.960938 265.0625 132.84375 265.878906 132.84375 C 270.914062 132.84375 272.429688 136.046875 272.007812 140.359375 C 271.890625 142.117188 271.496094 143.808594 270.832031 145.4375 Z M 270.832031 145.4375 " fill-opacity="1" fill-rule="nonzero"/><path fill="#fff200" d="M 284.644531 159.734375 C 275.875 159.734375 270.988281 155.449219 271.765625 146.585938 C 272.589844 137.195312 278.683594 132.734375 287.003906 132.734375 C 295.324219 132.734375 300.6875 137.15625 299.863281 146.585938 C 299.078125 155.582031 293.453125 159.734375 284.644531 159.734375 Z M 286.515625 138.582031 C 284.589844 138.582031 283.597656 140.648438 283.101562 146.292969 C 282.605469 151.9375 283.203125 153.917969 285.179688 153.917969 C 287.152344 153.917969 288.136719 151.976562 288.632812 146.292969 C 289.128906 140.613281 288.425781 138.582031 286.488281 138.582031 Z M 286.515625 138.582031 " fill-opacity="1" fill-rule="nonzero"/><path fill="#ffffff" d="M 338.628906 196.460938 C 337.421875 210.277344 334.714844 214.980469 330.207031 214.980469 C 325.394531 214.980469 323.980469 209.9375 325.160156 196.460938 C 326.347656 182.769531 328.753906 177.679688 333.453125 177.679688 C 338.152344 177.679688 339.808594 182.375 338.589844 196.460938 M 365.949219 197.121094 C 367.941406 174.214844 355.109375 163.46875 334.699219 163.46875 C 314.492188 163.46875 299.675781 174.214844 297.691406 197.121094 C 295.820312 218.71875 307.667969 229.125 328.96875 229.125 C 350.273438 229.125 364.039062 219.039062 365.984375 197.121094 M 291.113281 227.472656 L 296.539062 165.226562 L 269.773438 165.226562 L 264.34375 227.472656 Z M 266.917969 182 C 267.855469 171.480469 264.261719 163.695312 252.027344 163.695312 C 243.839844 163.695312 237.097656 168.296875 233.777344 176.410156 C 233.898438 174.984375 234.710938 165.226562 234.710938 165.226562 L 208.09375 165.226562 L 202.667969 227.472656 L 229.425781 227.472656 L 232.335938 194.140625 C 233.074219 185.597656 234.65625 180.054688 240.449219 180.054688 C 244.195312 180.054688 244.566406 182.871094 244.195312 186.742188 C 243.875 190.359375 242.164062 195.0625 241.976562 195.945312 L 263.953125 194.40625 C 265.609375 190.441406 266.585938 186.316406 266.878906 182.027344 M 168.738281 209.824219 C 168.476562 212.792969 166.269531 215.640625 162.011719 215.640625 C 158.621094 215.640625 156.84375 213.449219 157.21875 209.179688 C 157.75 203.035156 160.4375 201.0625 164.246094 199.964844 C 166.71875 199.203125 168.382812 198.875 169.769531 198.003906 Z M 201.582031 223.96875 L 201.507812 215.96875 C 200.644531 216.238281 199.761719 216.382812 198.855469 216.410156 C 196.5625 216.410156 194.898438 215.46875 195.160156 212.351562 L 197.753906 182.65625 C 198.960938 168.851562 189.816406 163.46875 168.851562 163.46875 C 147.660156 163.46875 137.871094 169.285156 136.953125 179.800781 C 136.542969 184.496094 137.890625 186.929688 138.828125 188.460938 L 161.195312 186.046875 C 160.523438 185.109375 160.257812 183.753906 160.503906 181.558594 C 160.800781 178.046875 162.597656 176.300781 166.117188 176.300781 C 170.160156 176.300781 171.453125 179.03125 171.097656 183.097656 L 170.675781 187.570312 C 168.871094 189.539062 164.789062 189.980469 158.453125 191.183594 C 138.472656 194.941406 131.375 199.945312 130.375 211.675781 C 129.335938 223.621094 137.171875 228.992188 149.402344 228.992188 C 161.082031 228.992188 167 225.050781 171.03125 218.90625 C 171.667969 224.167969 175.5625 228.296875 184.847656 228.296875 C 193.578125 228.296875 198.269531 225.886719 201.609375 223.914062 M 125.265625 227.414062 L 130.695312 165.171875 L 103.90625 165.171875 L 98.488281 227.414062 Z M 66.414062 185.832031 C 65.085938 202.378906 59.5625 208.078125 52.246094 208.078125 L 43.015625 208.078125 L 47.039062 162.210938 L 56.324219 162.210938 C 63.746094 162.210938 67.96875 167.6875 66.375 185.878906 M 97.132812 186.421875 C 99.808594 155.742188 85.703125 143.363281 60.910156 143.363281 L 19.195312 143.363281 L 11.859375 227.519531 L 54.246094 227.519531 C 78.496094 227.519531 94.667969 214.8125 97.148438 186.421875 " fill-opacity="1" fill-rule="nonzero"/></svg>