<svg xmlns="http://www.w3.org/2000/svg" viewBox="0 0 440 115"><title>NuestroDiario</title><path d="M152.59,38.64,142.47,18.18l-1.79,20.46H129.59l3.22-36.89h12.87l9.25,19.46,1.7-19.46h11.15l-3.23,36.89Z" fill="#fff200"/><path d="M185.64,38.64s.39-5,.4-5.14c-1.39,3.22-4.72,5.67-9.48,5.67-5.28,0-8.29-2.35-7.81-7.83l1.74-20h11.72l-1.49,17.1c-.18,2,.79,3,2.42,3s3.07-1.05,3.27-3.31l1.47-16.81h11.81l-2.38,27.28Z" fill="#fff200"/><path d="M228.23,26.68H212.52c-.33,4.32.06,6.44,3.19,6.44,2.2,0,3.2-1,3.57-2.93a10.75,10.75,0,0,0,.14-1.64l9,.39a12,12,0,0,1,0,2.4c-.37,4.23-3.91,8-13.66,8-10.28,0-15.05-4.7-14.3-13.3,1-11.24,8.21-15.42,16.95-15.42,8.51,0,12.46,4.18,11.84,11.34A21.6,21.6,0,0,1,228.23,26.68Zm-11.76-9.94c-2.07,0-3.12,1.54-3.67,5.67h5.52a9,9,0,0,0,.34-1.68C218.9,18,218.2,16.74,216.47,16.74Z" fill="#fff200"/><path d="M243,39.22c-8.55,0-13.27-2.6-13-7.26a7.49,7.49,0,0,1,.34-1.72l8.38-.77c0,.19,0,.33-.05.53-.2,2.25,1.42,3.5,4.55,3.5,2.54,0,3.48-.86,3.57-1.92.14-1.58-1.14-2.35-4.14-3.17-.75-.19-1.64-.43-2.63-.62-6.61-1.35-9.13-3.8-8.59-8.89.49-4.51,4.9-8.26,14.41-8.26,7.78,0,11.62,2.79,11.59,7a4.61,4.61,0,0,1-.15,1.2l-8.15.87a1.43,1.43,0,0,0-.06-.43c-.2-1.54-1.17-3-3.91-3-2.4,0-3.09.77-3.18,1.73s1.05,1.78,4.34,2.55c.66.14,1.6.38,2.59.57,7.32,1.44,9.21,4.61,8.79,9.42C257.18,35.62,253.11,39.22,243,39.22Z" fill="#fff200"/><path d="M269.83,39.17c-5.95,0-9.26-2.21-8.76-8l1.22-13.93h-3.84l.51-5.91h3.94l.7-8h11.72l-.7,8h6.1l-.52,5.91h-6.1L273,30c-.2,2.35.47,3.41,2.54,3.41a8.19,8.19,0,0,0,3-.77l.88,3.7A15.83,15.83,0,0,1,269.83,39.17Z" fill="#fff200"/><path d="M307.41,24.14l-9.66.67a23.77,23.77,0,0,0,1-4c.15-1.68,0-2.93-1.66-2.93-2.55,0-3.24,2.45-3.57,6.2l-1.28,14.6H280.45l2.38-27.28h11.72s-.37,4.28-.43,4.9a8.48,8.48,0,0,1,8-5.57c5.38,0,7,3.41,6.55,8A17.31,17.31,0,0,1,307.41,24.14Z" fill="#fff200"/><path d="M322.17,39.36c-9.37,0-14.59-4.56-13.76-14,.88-10,7.39-14.75,16.28-14.75s14.62,4.71,13.74,14.75C337.59,34.94,331.58,39.36,322.17,39.36Zm2-22.52c-2.06,0-3.12,2.2-3.65,8.21s.11,8.12,2.22,8.12,3.16-2.07,3.69-8.12S326.21,16.84,324.14,16.84Z" fill="#fff200"/><path d="M379.85,78.47c-1.29,14.71-4.18,19.72-9,19.72-5.14,0-6.65-5.37-5.39-19.72,1.27-14.58,3.84-20,8.86-20s6.79,5,5.49,20m29.23.7c2.13-24.39-11.58-35.83-33.39-35.83-21.59,0-37.42,11.44-39.54,35.83-2,23,10.66,34.08,33.42,34.08S407,102.51,409.08,79.17m-80,32.32,5.8-66.28H306.28l-5.8,66.28ZM303.23,63.07c1-11.2-2.84-19.49-15.91-19.49-8.75,0-15.95,4.9-19.5,13.54.13-1.52,1-11.91,1-11.91H240.38l-5.8,66.28h28.59L266.28,76c.79-9.1,2.48-15,8.67-15,4,0,4.4,3,4,7.12-.34,3.85-2.17,8.86-2.37,9.8l23.48-1.64a41.52,41.52,0,0,0,3.13-13.18M198.33,92.7c-.28,3.16-2.64,6.19-7.19,6.19-3.62,0-5.52-2.33-5.12-6.88.57-6.54,3.44-8.64,7.51-9.81,2.64-.81,4.42-1.16,5.9-2.09Zm35.09,15.06-.08-8.52a10.52,10.52,0,0,1-2.83.47c-2.45,0-4.23-1-3.95-4.32l2.77-31.62c1.29-14.7-8.48-20.43-30.88-20.43-22.64,0-33.1,6.19-34.08,17.39-.44,5,1,7.59,2,9.22l23.9-2.57c-.72-1-1-2.44-.74-4.78.32-3.74,2.24-5.6,6-5.6,4.32,0,5.7,2.91,5.32,7.24L200.4,69c-1.93,2.1-6.29,2.57-13.06,3.85-21.35,4-28.93,9.33-30,21.82-1.11,12.72,7.26,18.44,20.33,18.44,12.48,0,18.8-4.2,23.11-10.74.68,5.6,4.84,10,14.76,10,9.33,0,14.34-2.57,17.91-4.67m-81.57,3.73,5.8-66.28H129.06l-5.79,66.28ZM89,67.15c-1.42,17.62-7.32,23.69-15.14,23.69H64L68.3,42h9.92c7.93,0,12.44,5.83,10.74,25.2m32.86.58c2.86-32.67-12.21-45.85-38.7-45.85H38.55l-7.84,89.61H76c25.91,0,43.19-13.53,45.84-43.76" fill="#fff"/></svg>